<svg width="181" height="181" viewBox="0 0 181 181" fill="none" xmlns="http://www.w3.org/2000/svg">
<path d="M93.0792 95.4734C82.4195 72.0931 70.1498 49.931 56.5508 29.5127C75.6138 44.8666 93.0974 65.3715 107.575 89.3392" fill="white"/>
<path d="M93.8719 95.0034C89.7374 85.9444 85.3466 77.0153 80.6754 68.2283C76.0834 59.5836 71.2292 51.0873 66.1128 42.7518C63.2711 38.1326 60.35 33.563 57.3497 29.0489L55.9105 30.1743C63.5272 36.3147 70.656 43.0672 77.3031 50.2711C84.3526 57.9141 90.8716 66.0579 96.8601 74.5789C100.348 79.5382 103.654 84.6273 106.794 89.8154C107.41 90.8295 108.989 89.9019 108.374 88.8816C102.824 79.7051 96.7381 70.8626 90.1032 62.459C83.7733 54.4389 76.9372 46.8268 69.5766 39.7651C65.6067 35.956 61.4782 32.3139 57.1972 28.8634C56.4532 28.2636 55.1299 29.0365 55.758 29.9888C61.1123 38.0399 66.2104 46.2703 71.0463 54.6491C75.9737 63.1887 80.6327 71.8829 85.0234 80.7193C87.5298 85.7527 89.9447 90.8295 92.2803 95.9495C92.7743 97.0316 94.3537 96.0917 93.8598 95.0158L93.8719 95.0034Z" fill="black"/>
<path d="M78.333 64.58L61.1543 35.0408L87.3706 68.5375L84.2056 76.737L78.333 64.58Z" fill="#E0D4CA"/>
<path d="M81.432 91.2561C54.7706 91.9796 31.9328 78.2643 27.3835 71.0666C26.7493 70.0649 72.5408 70.3184 89.5305 58.1305C90.8294 57.1967 95.5982 74.6593 93.6773 75.4755C92.7321 75.8775 91.4453 90.9841 81.4259 91.2561H81.432Z" fill="#261C13"/>
<path d="M141.52 115.947C152.661 105.732 167.455 88.3808 171.907 73.8307C173.456 77.5409 180.518 80.9975 180.06 92.4929C179.798 99.1341 169.48 123.139 166.455 127.9C165.486 129.428 163.113 118.439 158.747 116.405C154.326 114.346 147.74 117.215 143.782 120.084" fill="#2CADC5"/>
<path d="M142.165 116.603C147.171 112.002 151.855 107.031 156.203 101.787C160.776 96.2711 165.039 90.4152 168.466 84.0893C170.198 80.8986 171.71 77.5594 172.79 74.078L171.119 74.3006C171.979 76.298 173.759 77.8624 175.083 79.5382C177.028 81.9992 178.37 84.819 178.9 87.9355C179.394 90.8542 179.193 93.3771 178.486 96.1226C177.778 98.8682 176.772 101.799 175.754 104.582C173.522 110.685 171.015 116.702 168.222 122.558C167.728 123.596 167.216 124.635 166.679 125.649C166.472 126.039 166.259 126.435 166.039 126.818C165.954 126.967 165.862 127.109 165.783 127.251C165.71 127.381 165.637 127.387 165.716 127.368C165.99 127.307 166.051 127.041 166.448 127.14C166.582 127.171 166.612 127.245 166.667 127.263C166.588 127.239 166.545 127.096 166.649 127.257C166.551 127.103 166.454 126.954 166.368 126.793C166.118 126.336 165.911 125.86 165.704 125.384C165.137 124.091 164.594 122.793 163.972 121.525C162.673 118.866 161.008 116.022 158.032 115.143C153.995 113.95 149.458 115.657 145.939 117.623C145.037 118.124 144.165 118.68 143.329 119.28C142.378 119.967 143.287 121.574 144.25 120.882C147.604 118.476 152.013 116.25 156.245 116.677C157.843 116.838 159.081 117.487 160.112 118.705C161.075 119.843 161.783 121.203 162.435 122.539C163.088 123.875 163.618 125.179 164.21 126.497C164.545 127.245 164.911 128.321 165.637 128.778C166.606 129.384 167.216 128.463 167.643 127.715C168.137 126.855 168.594 125.965 169.033 125.074C171.912 119.28 174.418 113.27 176.723 107.216C177.857 104.236 178.937 101.224 179.827 98.157C180.541 95.7083 181.065 93.2967 180.992 90.7243C180.882 87.0389 179.9 83.4462 177.912 80.3482C176.577 78.2643 174.717 76.5206 173.363 74.5356C173.107 74.1646 172.881 73.7689 172.698 73.3545C172.363 72.5754 171.241 72.8846 171.027 73.5772C169.082 79.8721 165.704 85.6723 162.014 91.0706C158.002 96.9451 153.452 102.442 148.598 107.618C146.116 110.265 143.543 112.831 140.872 115.279C140 116.083 141.292 117.394 142.165 116.59V116.603Z" fill="black"/>
<path d="M130.371 111.26C132.304 110.561 140.525 107.049 142.513 107.569C145.598 108.372 146.885 112.089 147.196 115.304C147.379 117.19 147.379 119.194 146.495 120.863C145.604 122.533 143.574 123.708 141.824 123.046" fill="white"/>
<path d="M130.615 112.157C133.829 110.982 136.963 109.547 140.293 108.725C140.921 108.57 141.562 108.397 142.208 108.453C142.391 108.484 142.251 108.453 142.208 108.453C142.293 108.471 142.391 108.496 142.47 108.521C142.702 108.601 142.921 108.682 143.135 108.805C143.592 109.065 143.983 109.405 144.33 109.807C145.794 111.514 146.245 114.03 146.367 116.219C146.452 117.759 146.385 119.466 145.495 120.783C144.739 121.89 143.385 122.601 142.08 122.162C140.958 121.785 140.482 123.578 141.592 123.949C144.641 124.975 147.373 122.292 147.989 119.441C148.605 116.59 148.148 113.4 147.044 110.815C146.178 108.781 144.336 106.554 141.94 106.604C140 106.641 138 107.439 136.189 108.076C134.152 108.793 132.164 109.64 130.14 110.376C129.042 110.778 129.511 112.571 130.627 112.163L130.615 112.157Z" fill="black"/>
<path d="M84.7071 136.86C87.9026 140.583 95.1778 150.681 96.9829 155.213C97.2024 155.764 97.4158 156.382 97.2024 156.939C96.9829 157.507 96.3852 157.835 95.8303 158.113C87.5489 162.256 78.9748 165.849 70.1934 168.861C81.4385 170.505 91.9945 175.032 102.758 178.625C106.1 179.738 109.789 180.764 113.088 179.521C114.875 178.847 116.345 177.573 117.772 176.33C119.863 174.5 121.955 172.67 124.053 170.839C124.321 170.604 124.602 170.351 124.693 170.011C124.87 169.355 124.291 168.755 123.76 168.316C118.168 163.716 112.155 159.61 105.813 156.067C104.008 155.059 102.118 154.051 100.831 152.449C99.9344 151.33 99.3795 149.988 98.8428 148.671C97.0804 144.355 95.3242 140.045 93.5618 135.729" fill="#2CADC5"/>
<path d="M84.0597 137.516C87.6333 141.696 90.847 146.315 93.7193 151.015C94.3779 152.097 95.0182 153.191 95.5793 154.323C95.8049 154.768 96.0244 155.226 96.1952 155.696C96.3232 156.06 96.4879 156.444 96.2257 156.772C95.9756 157.087 95.4634 157.26 95.1097 157.433C91.2922 159.338 87.4198 161.125 83.4926 162.782C79.0409 164.662 74.5221 166.381 69.9545 167.952C69.1922 168.211 68.9849 169.596 69.9545 169.739C77.1626 170.808 84.1207 173.041 90.9873 175.459C94.4755 176.683 97.9454 177.951 101.446 179.144C104.672 180.238 108.081 181.395 111.526 180.869C114.972 180.344 117.624 177.672 120.216 175.409C121.637 174.166 123.058 172.929 124.479 171.687C125.003 171.229 125.497 170.765 125.613 170.042C125.735 169.238 125.314 168.527 124.765 167.976C123.521 166.727 121.972 165.688 120.576 164.625C119.179 163.561 117.63 162.436 116.118 161.391C113.173 159.35 110.136 157.446 107.02 155.677C105.416 154.768 103.69 153.946 102.324 152.684C100.958 151.423 100.22 149.611 99.5004 147.855C97.8173 143.73 96.1342 139.606 94.4511 135.475C94.0059 134.387 92.2374 134.863 92.6887 135.97C94.1035 139.439 95.5183 142.908 96.9392 146.377C98.2076 149.487 99.2199 152.672 101.97 154.768C103.22 155.72 104.617 156.438 105.977 157.204C107.495 158.064 108.995 158.954 110.471 159.882C113.423 161.725 116.301 163.697 119.088 165.794C120.478 166.839 121.887 167.896 123.204 169.04C123.344 169.164 123.832 169.51 123.814 169.751C123.796 169.949 123.32 170.246 123.186 170.363C122.442 171.019 121.692 171.668 120.942 172.323C119.576 173.517 118.21 174.716 116.838 175.91C115.63 176.961 114.356 178.031 112.849 178.606C109.648 179.837 106.111 178.736 103.007 177.709C99.6834 176.602 96.3842 175.403 93.0851 174.234C85.694 171.612 78.2176 169.102 70.4424 167.952V169.739C79.1018 166.764 87.5723 163.24 95.7805 159.158C96.5123 158.794 97.3172 158.441 97.799 157.742C98.3905 156.871 98.232 155.881 97.8722 154.954C97.427 153.81 96.8416 152.721 96.2379 151.658C94.6706 148.906 92.896 146.272 91.0727 143.693C89.2493 141.115 87.3954 138.579 85.3586 136.193C84.5842 135.29 83.2974 136.607 84.0658 137.503L84.0597 137.516Z" fill="black"/>
<path d="M113.071 72.8042C113.071 72.8042 119.389 85.6043 126.756 80.2926C133.769 75.2406 141.66 52.6271 148.63 32.1222C148.63 32.1222 156.436 11.0917 145.795 21.3441C135.147 31.5966 101.71 59.9732 113.071 72.798V72.8042Z" fill="#261C13" stroke="black" stroke-miterlimit="10"/>
<path d="M100.347 30.3722C100.841 36.0364 106.714 40.2784 112.3 39.8208C117.886 39.3632 122.691 34.9728 124.722 29.6735C127.301 22.9642 125.697 14.8019 120.782 9.60144C115.867 4.40102 107.897 2.42844 101.176 4.75349C94.0294 7.22693 89.0105 13.8125 85.687 20.6949C78.2898 35.9931 78.2471 50.1289 81.1072 66.9174C83.9673 83.706 70.6366 109.195 77.5336 124.734C79.0826 128.216 82.5342 135.617 84.3271 136.792C85.6626 137.664 86.8091 139.043 90.0777 138.252C92.084 137.763 96.8833 135.815 99.4019 136.792C110.446 141.102 135.162 134.863 139.254 123.603C143.346 112.342 140.004 99.5422 134.082 89.1537C130.064 82.092 124.905 75.7415 120.935 68.6488C116.965 61.5562 116.355 47.136 117.697 39.0911" fill="white"/>
<path d="M99.4318 30.3722C100.048 36.5682 106.085 41.1193 112.092 40.7607C118.513 40.3773 123.819 35.2325 125.843 29.2653C127.959 23.0384 126.709 15.7479 122.77 10.5351C118.83 5.32236 112.336 2.51499 105.933 2.89219C99.5294 3.26939 93.6263 7.28256 89.6015 12.5015C85.229 18.1843 82.2897 25.1409 80.4785 32.0727C78.6674 39.0045 78.149 46.4063 78.582 53.6474C78.8076 57.4255 79.2711 61.1914 79.8504 64.9263C80.3078 67.8635 80.6676 70.6956 80.5639 73.6823C80.3505 79.7979 79.0333 85.8331 77.7892 91.8065C76.5086 97.9716 75.1487 104.168 74.7218 110.462C74.5267 113.313 74.5633 116.176 74.9718 119.008C75.3499 121.599 76.1732 123.986 77.2526 126.354C78.4051 128.896 79.6065 131.425 80.9969 133.849C81.5823 134.869 82.2043 135.89 82.9666 136.786C83.5581 137.473 84.3692 138.004 85.1315 138.487C87.5647 140.033 90.1381 139.216 92.6811 138.45C94.0593 138.035 95.4741 137.615 96.9072 137.485C97.4926 137.435 98.1024 137.411 98.6817 137.547C99.1879 137.664 99.6757 137.893 100.176 138.048C104.707 139.457 109.695 139.278 114.33 138.635C119.574 137.912 124.776 136.415 129.527 134.028C133.442 132.062 137.515 129.254 139.546 125.192C140.967 122.341 141.577 118.977 141.839 115.824C142.15 112.175 141.839 108.49 141.119 104.903C139.619 97.4707 136.271 90.644 132.21 84.3243C130.014 80.9048 127.654 77.6027 125.422 74.2079C123.605 71.4438 121.635 68.6055 120.489 65.4643C118.403 59.732 117.903 53.3505 117.958 47.2844C117.983 44.6254 118.135 41.9541 118.568 39.3323C118.757 38.1636 116.995 37.6627 116.806 38.8376C115.879 44.477 115.928 50.3515 116.586 56.0157C116.915 58.8725 117.403 61.7232 118.239 64.4749C119.123 67.3874 120.562 69.9474 122.166 72.5136C126.173 78.9445 130.905 84.9241 134.411 91.6704C137.698 97.9839 139.985 105.033 140.131 112.219C140.241 117.524 139.412 123.59 135.594 127.529C132.362 130.862 127.972 132.989 123.66 134.492C118.916 136.143 113.891 137.126 108.872 137.219C106.713 137.262 104.53 137.145 102.408 136.693C101.456 136.496 100.548 136.205 99.6392 135.883C98.4195 135.457 97.1084 135.556 95.8583 135.747C94.4557 135.964 93.0897 136.372 91.7359 136.786C90.504 137.163 89.2417 137.633 87.9367 137.541C86.1377 137.411 84.5765 136.001 83.6496 134.628C82.1677 132.439 81.003 130.015 79.8687 127.628C78.8198 125.421 77.7648 123.219 77.1855 120.826C75.9049 115.508 76.4171 109.844 77.2282 104.501C78.1612 98.392 79.6126 92.3754 80.7651 86.3092C81.814 80.8058 82.7532 75.1231 82.3263 69.496C82.0702 66.1383 81.3262 62.8238 80.9359 59.4847C80.5456 56.1455 80.2712 52.491 80.259 48.9787C80.2285 41.9418 81.253 34.9605 83.5276 28.3007C85.8023 21.6409 88.7782 15.5624 93.5287 10.7887C97.9926 6.30555 104.012 3.8321 110.305 5.00699C116.598 6.18188 121.782 10.43 123.916 16.5209C126.051 22.6118 125.172 29.2344 121.093 34.0144C119.129 36.3147 116.537 38.0708 113.574 38.7015C110.61 39.3323 107.847 38.6273 105.469 37.0258C103.243 35.5232 101.53 33.1177 101.255 30.3784C101.139 29.2035 99.3098 29.1911 99.4257 30.3784L99.4318 30.3722Z" fill="black"/>
<g style="mix-blend-mode:multiply">
<path d="M99.5867 29.4261C100.044 33.9834 105.496 37.403 110.685 37.032C115.875 36.6609 120.333 33.1301 122.217 28.8634C124.608 23.4589 123.126 16.8919 118.564 12.7056C114.003 8.51927 106.618 8.23483 100.373 10.1023C93.7385 12.0934 90.6284 17.6154 87.5427 23.1497C80.6761 35.4675 82.0848 44.5389 84.7375 58.0563C87.2012 35.6654 114.454 42.9126 115.698 36.4383" fill="#E0D4CA"/>
</g>
<path d="M84.3533 128.228C87.933 132.408 92.5189 136.162 97.9097 137.522C99.0501 137.813 99.5379 136.019 98.3975 135.735C93.2994 134.449 89.0307 130.868 85.6461 126.917C84.8717 126.014 83.5849 127.331 84.3533 128.228Z" fill="black"/>
<path d="M82.0918 118.854C82.0918 118.854 100.24 141.275 121.316 134.931C142.385 128.587 140.72 117.37 139.049 105.738C138.391 101.169 136.543 96.2154 131.75 87.9665C126.95 79.7175 120.694 73.5834 120.694 73.5834C120.694 73.5834 154.703 125.204 112.138 130.491C93.4284 132.816 82.0918 118.854 82.0918 118.854Z" fill="#E0D4CA"/>
<path d="M104.99 30.5459C107.551 29.5349 108.762 26.4632 107.696 23.6848C106.629 20.9065 103.688 19.4738 101.127 20.4847C98.5664 21.4956 97.3549 24.5674 98.4215 27.3457C99.4881 30.124 102.429 31.5568 104.99 30.5459Z" fill="white" stroke="black" stroke-width="2" stroke-miterlimit="10"/>
<path d="M105.523 23.0261L104.493 27.2L104.584 22.9828C103.121 23.1497 101.986 24.405 101.986 25.9324C101.986 27.571 103.297 28.9005 104.913 28.9005C106.529 28.9005 107.841 27.571 107.841 25.9324C107.841 24.504 106.847 23.3167 105.523 23.0323V23.0261ZM106.834 25.9262C106.45 26.1488 105.993 26.0622 105.804 25.7283C105.615 25.3944 105.773 24.9492 106.151 24.7266C106.536 24.504 106.993 24.5905 107.182 24.9244C107.371 25.2584 107.213 25.7036 106.834 25.9262Z" fill="black"/>
<path d="M120.801 38.4445C123.017 37.5698 124.115 35.0445 123.255 32.8041C122.395 30.5636 119.902 29.4564 117.686 30.331C115.47 31.2057 114.371 33.731 115.231 35.9714C116.091 38.2119 118.585 39.3191 120.801 38.4445Z" fill="white" stroke="black" stroke-width="2" stroke-miterlimit="10"/>
<path d="M121.137 31.4111L120.174 35.115L120.259 31.3678C118.893 31.5162 117.832 32.6292 117.832 33.9834C117.832 35.4366 119.058 36.6177 120.564 36.6177C122.07 36.6177 123.296 35.4366 123.296 33.9834C123.296 32.7158 122.369 31.6584 121.131 31.4049L121.137 31.4111ZM122.357 33.9834C122.003 34.1813 121.57 34.1009 121.393 33.8103C121.217 33.5135 121.363 33.1177 121.717 32.9199C122.07 32.722 122.503 32.8024 122.68 33.093C122.857 33.3836 122.711 33.7856 122.357 33.9834Z" fill="black"/>
<path d="M105.601 34.7378C104.18 45.8622 100.466 61.8159 97.2344 72.5445C103.881 62.8671 107.992 47.0865 112.297 35.1274" fill="#2CADC5"/>
<path d="M104.687 34.7378C103.388 44.8171 101.107 54.8037 98.5151 64.6109C97.8382 67.1833 97.1187 69.7495 96.3503 72.2972C96.0332 73.3546 97.4541 73.8431 98.0212 73.0145C100.881 68.822 102.973 64.141 104.839 59.4229C106.864 54.2843 108.583 49.0282 110.315 43.7845C111.242 40.9771 112.181 38.1636 113.181 35.3809C113.584 34.2555 111.815 33.7732 111.419 34.8862C107.815 44.9161 105.071 55.3293 100.467 64.9634C99.2896 67.4245 97.9785 69.8299 96.4418 72.0807L98.1127 72.798C101.076 62.9537 103.461 52.8868 105.272 42.7642C105.748 40.1052 106.168 37.4339 106.516 34.7502C106.583 34.2493 106.046 33.8288 105.601 33.8227C105.052 33.8227 104.748 34.2555 104.687 34.7502V34.7378Z" fill="black"/>
<path d="M102.564 20.0455C103.967 21.3008 105.369 22.5623 106.772 23.8176C107.077 24.0896 107.516 24.1824 107.882 23.9598C108.205 23.7681 108.449 23.2858 108.302 22.9147C107.089 19.8539 105.284 16.9723 104.272 13.8928C103.9 12.7674 102.131 13.2497 102.509 14.3875C103.034 15.9829 103.79 17.5103 104.509 19.0191C104.894 19.8353 105.29 20.6454 105.674 21.4616C105.845 21.8264 106.016 22.1913 106.18 22.5623C106.253 22.7231 106.321 22.8776 106.388 23.0384C106.479 23.2548 106.443 23.1559 106.54 23.4156L108.071 22.5128C106.668 21.2575 105.266 19.9961 103.863 18.7408C103.491 18.4069 102.936 18.3698 102.57 18.7408C102.235 19.0809 102.198 19.7178 102.57 20.0517L102.564 20.0455Z" fill="black"/>
<path d="M127.232 24.0711C123.994 26.0746 120.408 27.4597 117.17 29.4632C116.432 29.9208 116.695 31.2503 117.634 31.1946C119.976 31.0524 122.317 30.9102 124.659 30.7679C125.83 30.6937 125.836 28.8386 124.659 28.9128C122.317 29.0551 119.976 29.1973 117.634 29.3395L118.097 31.0709C121.335 29.0674 124.921 27.6823 128.159 25.6788C129.166 25.0604 128.245 23.4527 127.238 24.0773L127.232 24.0711Z" fill="black"/>
<path d="M43.9195 78.1778L40.9253 72.0312C40.9253 72.0312 37.0651 65.3158 40.9253 60.4679C45.3404 54.9212 45.2123 43.0239 40.9253 36.5496C36.1443 29.321 27.4055 21.7708 12.0929 28.0657C6.34835 30.4278 3.0614 36.1477 1.83566 40.6061C-0.993916 50.9265 3.53707 59.4909 12.782 64.9448C15.6116 66.6144 18.2216 68.0304 22.161 67.7398C23.4356 67.6471 27.3141 67.1833 29.8875 68.6735C32.2597 70.0463 33.5891 71.4252 35.2235 75.0179C36.559 77.949 37.5713 79.9339 38.2238 81.1459C38.6872 81.9992 39.73 82.3332 40.5899 81.8879L43.1328 80.577C43.9988 80.1318 44.3525 79.0558 43.9195 78.1716V78.1778Z" fill="#D8D0CA" stroke="black" stroke-width="2" stroke-miterlimit="10"/>
<path d="M4.14258 53.7525C4.14258 53.7525 6.89288 59.3857 10.3994 62.3291C16.3329 67.3131 20.9432 67.4492 27.4134 66.3361C27.139 66.7875 21.8213 66.837 16.7476 64.6604C11.6739 62.4837 6.90507 58.0377 4.14868 53.7525H4.14258Z" fill="#96887E"/>
<path d="M42.5165 79.3526L40.7236 80.4719C40.7236 80.4719 39.6869 81.4489 38.9308 80.1936C38.1746 78.9383 34.3083 70.7512 34.3083 70.7512C34.3083 70.7512 31.619 67.4615 29.4785 67.1833C29.4785 67.1833 33.6192 67.3935 37.0647 74.3192C40.5102 81.2448 42.5165 79.3526 42.5165 79.3526Z" fill="#96887E"/>
<path d="M40.5315 59.194C44.6112 53.8947 44.4893 42.5106 40.5315 36.3208C36.1164 29.4075 27.2618 21.9315 13.1261 27.9482C7.82672 30.2052 4.66784 33.8226 3.53967 38.0893C0.923528 47.9584 4.91787 56.6959 13.8884 62.3353C16.4679 63.9616 20.4622 66.2743 24.1029 66.0022C25.2798 65.9156 37.6531 61.3336 40.5376 59.194H40.5315Z" fill="#C1272D" stroke="black" stroke-miterlimit="10"/>
<path d="M21.2663 27.0392C21.2663 27.0392 15.7474 27.1072 11.747 30.1187C7.74652 33.1301 5.47188 36.4816 4.29492 39.2828C4.29492 39.2828 10.7773 28.579 21.2602 27.0454L21.2663 27.0392Z" fill="white"/>
<path d="M34.0974 31.7202C34.0974 31.7202 45.062 36.1292 41.0616 55.5705C41.0616 55.5705 40.2322 59.2064 37.3355 60.7461C34.4389 62.2859 29.2676 64.1039 29.2676 64.1039C29.2676 64.1039 44.5131 50.673 34.0974 31.7202Z" fill="#8E252D"/>
<path d="M154.351 11.7719C157.207 11.7719 159.522 9.3605 159.522 6.38593C159.522 3.41137 157.207 1 154.351 1C151.495 1 149.18 3.41137 149.18 6.38593C149.18 9.3605 151.495 11.7719 154.351 11.7719Z" fill="#E0D3D4" stroke="black" stroke-width="2" stroke-miterlimit="10"/>
<path d="M152.318 4.49994C152.318 4.49994 149.433 7.41242 152.238 10.0714C154.592 12.2975 157.342 9.59524 157.342 9.59524C157.342 9.59524 153.183 10.2322 152.007 8.4018C150.83 6.57145 152.318 4.49994 152.318 4.49994Z" fill="#2CADC5"/>
<path d="M69.8802 66.8432C76.1065 65.4519 79.2775 58.6252 79.6373 57.1226C79.9971 55.6199 82.2352 56.3249 82.0766 57.9017C81.851 60.1711 81.7046 64.9325 81.5461 70.541C81.1619 84.6335 78.1311 91.083 78.1311 91.083L68.8008 89.8216L69.8741 66.8432H69.8802Z" fill="#261C13"/>
</svg>
