<svg width="274" height="293" viewBox="0 0 274 293" fill="none" xmlns="http://www.w3.org/2000/svg">
<ellipse cx="137" cy="220.5" rx="137" ry="62.5" fill="#868798"/>
<path d="M87.0386 251.127C82.8445 251.127 79.4445 247.635 79.4445 243.327C79.4445 239.019 82.8445 235.527 87.0386 235.527C91.2328 235.527 94.6328 239.019 94.6328 243.327C94.6328 247.635 91.2328 251.127 87.0386 251.127Z" fill="#E0D3D4" stroke="black" stroke-width="2" stroke-miterlimit="10"/>
<path d="M261.593 202.6C257.399 202.6 253.999 199.108 253.999 194.8C253.999 190.492 257.399 187 261.593 187C265.787 187 269.188 190.492 269.188 194.8C269.188 199.108 265.787 202.6 261.593 202.6Z" fill="#E0D3D4" stroke="black" stroke-width="2" stroke-miterlimit="10"/>
<path d="M90.0219 240.596C90.0219 240.596 94.2578 244.814 90.1383 248.665C86.6815 251.888 82.6426 247.975 82.6426 247.975C82.6426 247.975 88.7502 248.897 90.4786 246.247C92.207 243.596 90.0219 240.596 90.0219 240.596Z" fill="#2CADC5"/>
<path d="M264.377 190C264.377 190 268.613 194.218 264.494 198.069C261.037 201.293 256.998 197.379 256.998 197.379C256.998 197.379 263.106 198.302 264.834 195.651C266.562 193 264.377 190 264.377 190Z" fill="#2CADC5"/>
<path d="M105.977 163.779C89.6151 148.985 67.8893 123.856 61.3518 102.784C59.0772 108.157 48.7068 113.163 49.3785 129.811C49.7635 139.429 64.9161 174.194 69.3579 181.09C70.7819 183.302 74.2655 167.388 80.6776 164.442C87.1702 161.459 96.8421 165.615 102.654 169.77" fill="#2CADC5"/>
<path d="M105.028 164.728C97.6752 158.065 90.7975 150.865 84.4123 143.271C77.6957 135.283 71.4359 126.802 66.403 117.641C63.8596 113.02 61.6387 108.184 60.0536 103.142L62.5074 103.464C61.2447 106.357 58.6297 108.623 56.6864 111.05C53.8296 114.614 51.8594 118.697 51.0803 123.211C50.3549 127.438 50.6504 131.092 51.6893 135.068C52.7281 139.044 54.2057 143.289 55.7013 147.319C58.9789 156.158 62.6596 164.871 66.7612 173.352C67.4866 174.857 68.2388 176.361 69.0269 177.83C69.3314 178.394 69.6448 178.967 69.9672 179.522C70.0926 179.737 70.2269 179.943 70.3433 180.149C70.4508 180.337 70.5583 180.346 70.4419 180.32C70.0389 180.23 69.9493 179.845 69.3672 179.988C69.1702 180.033 69.1254 180.14 69.0448 180.167C69.1612 180.131 69.2239 179.925 69.0717 180.158C69.215 179.934 69.3582 179.72 69.4836 179.487C69.8508 178.824 70.1553 178.134 70.4598 177.445C71.2926 175.573 72.0897 173.693 73.0031 171.857C74.9106 168.006 77.3554 163.886 81.7257 162.615C87.6541 160.886 94.3169 163.358 99.4842 166.206C100.81 166.931 102.09 167.737 103.317 168.606C104.714 169.6 103.38 171.928 101.965 170.925C97.0394 167.442 90.5646 164.218 84.3496 164.836C82.0033 165.068 80.1853 166.009 78.6719 167.773C77.2569 169.421 76.2181 171.391 75.2599 173.325C74.3016 175.26 73.5225 177.149 72.6538 179.057C72.1613 180.14 71.624 181.699 70.5583 182.361C69.1344 183.239 68.2388 181.905 67.6119 180.821C66.8866 179.576 66.2149 178.287 65.5701 176.997C61.3432 168.606 57.6625 159.901 54.2774 151.134C52.6117 146.817 51.0266 142.456 49.7191 138.014C48.6713 134.468 47.9011 130.975 48.0086 127.25C48.1698 121.912 49.6116 116.709 52.5311 112.223C54.4923 109.205 57.2237 106.679 59.2118 103.805C59.5879 103.267 59.9193 102.694 60.1879 102.094C60.6805 100.966 62.3283 101.414 62.6417 102.417C65.4985 111.533 70.4598 119.933 75.8778 127.751C81.7704 136.259 88.4512 144.22 95.5797 151.716C99.2245 155.549 103.004 159.265 106.926 162.812C108.207 163.976 106.308 165.874 105.028 164.71V164.728Z" fill="black"/>
<path d="M122.35 157C119.511 155.988 107.439 150.901 104.519 151.653C99.988 152.817 98.0984 158.2 97.6417 162.856C97.373 165.588 97.373 168.489 98.6715 170.907C99.979 173.325 102.961 175.027 105.531 174.069" fill="white"/>
<path d="M121.991 158.298C117.271 156.597 112.668 154.519 107.778 153.328C106.856 153.104 105.916 152.853 104.967 152.934C104.904 152.934 104.698 152.979 104.967 152.934C104.841 152.961 104.698 152.997 104.581 153.032C104.241 153.149 103.919 153.265 103.605 153.444C102.934 153.82 102.36 154.313 101.85 154.895C99.7007 157.367 99.038 161.012 98.8589 164.182C98.7335 166.412 98.8321 168.883 100.14 170.791C101.25 172.394 103.238 173.424 105.155 172.788C106.802 172.242 107.501 174.839 105.871 175.376C101.393 176.863 97.3813 172.976 96.4768 168.848C95.5723 164.719 96.2439 160.098 97.8649 156.355C99.1365 153.408 101.841 150.185 105.361 150.256C108.208 150.31 111.146 151.465 113.805 152.388C116.797 153.426 119.716 154.653 122.689 155.719C124.301 156.301 123.612 158.898 121.973 158.307L121.991 158.298Z" fill="black"/>
<path d="M191.581 134.038C207.163 90.8192 225.594 49.6154 246.424 11.3938C215.859 41.1257 188.464 79.9474 166.515 124.653" fill="white"/>
<path d="M190.292 133.68C196.337 116.933 202.848 100.366 209.833 83.9952C216.693 67.9203 224.027 52.0513 231.845 36.4241C236.162 27.7732 240.639 19.2029 245.26 10.7132L247.374 12.3431C235.069 24.3254 223.723 37.2928 213.307 50.9408C202.167 65.5471 192.038 80.9235 182.859 96.8372C177.477 106.16 172.426 115.67 167.68 125.333C166.919 126.883 164.599 125.521 165.36 123.981C173.743 106.921 183.092 90.3267 193.489 74.404C203.295 59.3858 214.024 44.9586 225.764 31.3912C232.042 24.1373 238.615 17.1342 245.484 10.4445C246.586 9.36988 248.323 10.7311 247.598 12.0744C239.412 27.1016 231.702 42.3795 224.448 57.8813C216.997 73.8129 210.03 89.9685 203.528 106.312C199.83 115.617 196.283 124.984 192.889 134.396C192.307 136.008 189.71 135.31 190.301 133.68H190.292Z" fill="black"/>
<path d="M213.282 76.8578L239.234 21.8358L198.46 84.9893L204.64 99.3627L213.282 76.8578Z" fill="#E0D4CA"/>
<path d="M189.415 194.075C184.722 199.466 174.038 214.09 171.387 220.655C171.065 221.452 170.752 222.347 171.065 223.153C171.387 223.977 172.265 224.452 173.08 224.855C185.241 230.855 197.833 236.058 210.729 240.419C194.215 242.801 178.713 249.357 162.907 254.56C157.999 256.172 152.581 257.658 147.736 255.858C145.112 254.882 142.954 253.037 140.858 251.237C137.787 248.586 134.715 245.936 131.634 243.285C131.24 242.945 130.828 242.577 130.694 242.085C130.434 241.136 131.285 240.267 132.064 239.631C140.276 232.968 149.106 227.022 158.42 221.89C161.071 220.431 163.847 218.971 165.737 216.652C167.053 215.031 167.868 213.087 168.656 211.18C171.244 204.929 173.823 198.687 176.411 192.436" fill="#2CADC5"/>
<path d="M190.364 195.024C185.116 201.078 180.397 207.768 176.179 214.574C175.212 216.141 174.271 217.726 173.447 219.365C173.116 220.01 172.794 220.673 172.543 221.353C172.355 221.882 172.113 222.437 172.498 222.911C172.865 223.368 173.618 223.619 174.137 223.87C179.743 226.628 185.43 229.216 191.197 231.616C197.734 234.339 204.37 236.828 211.078 239.103C212.197 239.479 212.502 241.485 211.078 241.691C200.493 243.24 190.275 246.473 180.191 249.975C175.068 251.748 169.973 253.584 164.832 255.312C160.095 256.897 155.089 258.572 150.029 257.811C144.969 257.049 141.074 253.181 137.268 249.903C135.181 248.103 133.094 246.312 131.008 244.512C130.238 243.849 129.512 243.177 129.342 242.13C129.163 240.965 129.781 239.936 130.587 239.139C132.414 237.33 134.688 235.825 136.739 234.285C138.79 232.744 141.065 231.115 143.286 229.601C147.611 226.646 152.071 223.888 156.647 221.326C159.002 220.01 161.537 218.819 163.543 216.992C165.549 215.165 166.632 212.541 167.689 209.998C170.161 204.024 172.632 198.051 175.104 192.069C175.758 190.493 178.355 191.182 177.692 192.785C175.615 197.809 173.537 202.833 171.45 207.857C169.588 212.362 168.101 216.974 164.062 220.01C162.226 221.389 160.176 222.428 158.178 223.538C155.949 224.783 153.746 226.073 151.578 227.416C147.244 230.085 143.017 232.941 138.924 235.977C136.883 237.491 134.814 239.022 132.879 240.679C132.674 240.858 131.957 241.36 131.984 241.709C132.011 241.995 132.709 242.425 132.906 242.595C133.999 243.545 135.1 244.485 136.202 245.434C138.208 247.163 140.214 248.9 142.229 250.628C144.002 252.151 145.874 253.7 148.086 254.533C152.787 256.315 157.981 254.721 162.54 253.234C167.42 251.631 172.265 249.894 177.11 248.201C187.964 244.404 198.943 240.768 210.362 239.103V241.691C197.645 237.383 185.206 232.279 173.152 226.368C172.077 225.84 170.895 225.329 170.188 224.317C169.319 223.055 169.552 221.622 170.08 220.279C170.734 218.622 171.594 217.046 172.48 215.505C174.782 211.52 177.388 207.705 180.065 203.971C182.743 200.236 185.466 196.565 188.457 193.108C189.594 191.8 191.484 193.708 190.355 195.006L190.364 195.024Z" fill="black"/>
<path d="M118.8 129.91L118.394 129.616L118.402 129.606C135.467 107.241 141.066 89.8539 142.419 78.0947C143.095 72.2137 142.71 67.733 142.161 64.7324C141.887 63.2317 141.571 62.1005 141.326 61.3487C141.203 60.9729 141.098 60.6918 141.025 60.5069C141.016 60.4838 141.007 60.4622 140.999 60.4421C136.897 59.3243 133.06 61.7553 129.457 66.7148C125.802 71.7445 122.531 79.1959 119.657 87.4794C115.143 100.489 111.646 115.43 109.168 126.021C108.491 128.912 107.89 131.479 107.365 133.594C106.759 136.039 106.498 137.782 106.491 138.97C106.487 139.564 106.547 139.994 106.644 140.295C106.739 140.593 106.86 140.731 106.959 140.796C107.15 140.922 107.541 140.94 108.27 140.548C108.959 140.178 109.781 139.528 110.668 138.701C112.436 137.052 114.366 134.785 115.861 132.919C116.606 131.989 117.24 131.162 117.688 130.568C117.912 130.272 118.089 130.033 118.21 129.869C118.27 129.787 118.317 129.724 118.348 129.681L118.383 129.632L118.392 129.62L118.394 129.617L118.394 129.617C118.394 129.617 118.394 129.617 118.8 129.91Z" fill="#261C13" stroke="black"/>
<path d="M166.434 39.8452C165.709 48.0483 157.085 54.1917 148.882 53.529C140.679 52.8663 133.622 46.508 130.64 38.8332C126.852 29.1166 129.207 17.2955 136.425 9.76399C143.634 2.2325 155.348 -0.62427 165.216 2.74296C175.712 6.32512 183.082 15.8626 187.963 25.83C198.826 47.9856 198.889 68.4577 194.689 92.7716C190.489 117.085 210.065 154 199.937 176.505C197.662 181.546 192.593 192.266 189.96 193.968C187.999 195.23 186.315 197.227 181.515 196.081C178.569 195.374 171.521 192.553 167.822 193.968C151.604 200.209 115.308 191.173 109.299 174.866C103.29 158.558 108.197 140.02 116.893 124.975C122.795 114.748 130.371 105.551 136.201 95.2791C142.031 85.0072 142.926 64.1233 140.956 52.4723" fill="white"/>
<path d="M167.777 39.8451C166.873 48.8185 158.007 55.4096 149.186 54.8902C139.756 54.335 131.965 46.8841 128.991 38.2421C126.018 29.6002 127.72 18.6656 133.505 11.1162C139.29 3.56683 148.837 -0.489968 158.231 0.0473563C167.625 0.58468 176.303 6.40569 182.213 13.964C188.634 22.1941 192.951 32.2689 195.611 42.3079C198.306 52.4812 199.032 63.0665 198.396 73.5533C198.064 79.025 197.384 84.4789 196.533 89.8879C195.861 94.1417 195.333 98.2433 195.485 102.569C195.799 111.426 197.733 120.166 199.56 128.817C201.387 137.468 203.438 146.719 204.064 155.835C204.351 159.964 204.297 164.11 203.697 168.212C203.142 171.964 201.933 175.421 200.348 178.851C198.655 182.532 196.891 186.194 194.849 189.705C193.99 191.182 193.076 192.66 191.957 193.959C191.088 194.953 189.897 195.723 188.778 196.421C185.204 198.66 181.425 197.478 177.691 196.368C175.667 195.768 173.589 195.159 171.485 194.971C170.625 194.899 169.729 194.863 168.879 195.06C168.135 195.23 167.419 195.562 166.685 195.785C160.031 197.827 152.705 197.568 145.899 196.636C138.198 195.588 130.559 193.421 123.582 189.964C117.833 187.117 111.851 183.051 108.869 177.167C106.782 173.039 105.886 168.167 105.501 163.6C105.045 158.316 105.501 152.979 106.558 147.785C108.761 137.02 113.678 127.133 119.642 117.981C122.866 113.029 126.332 108.246 129.609 103.33C132.278 99.3269 135.171 95.2164 136.854 90.667C139.917 82.3654 140.651 73.1234 140.571 64.3382C140.535 60.4873 140.311 56.6186 139.675 52.8215C139.398 51.1289 141.986 50.4036 142.263 52.1051C143.624 60.2724 143.553 68.78 142.586 76.9832C142.102 81.1206 141.386 85.249 140.159 89.2342C138.86 93.4522 136.747 97.1597 134.391 100.876C128.508 110.19 121.558 118.85 116.409 128.62C111.582 137.763 108.224 147.973 108.009 158.379C107.848 166.063 109.066 174.848 114.672 180.552C119.418 185.379 125.866 188.46 132.197 190.636C139.165 193.027 146.544 194.451 153.914 194.585C157.084 194.648 160.29 194.478 163.407 193.824C164.804 193.538 166.138 193.117 167.473 192.651C169.264 192.033 171.189 192.176 173.025 192.454C175.085 192.768 177.091 193.359 179.079 193.959C180.888 194.505 182.742 195.185 184.658 195.051C187.3 194.863 189.593 192.821 190.954 190.833C193.13 187.663 194.84 184.152 196.506 180.696C198.046 177.499 199.596 174.31 200.446 170.845C202.327 163.143 201.575 154.94 200.384 147.202C199.014 138.355 196.882 129.641 195.19 120.856C193.649 112.885 192.27 104.655 192.897 96.506C193.273 91.6432 194.366 86.8431 194.939 82.0072C195.512 77.1712 195.915 71.8786 195.933 66.7919C195.978 56.6007 194.473 46.49 191.133 36.8451C187.792 27.2001 183.422 18.397 176.446 11.4834C169.891 4.99074 161.052 1.40858 151.81 3.1101C142.568 4.81163 134.956 10.964 131.821 19.7851C128.687 28.6061 129.976 38.1973 135.968 45.1199C138.851 48.4513 142.657 50.9946 147.01 51.9081C151.362 52.8215 155.419 51.8006 158.911 49.4812C162.18 47.305 164.697 43.8213 165.1 39.8541C165.27 38.1526 167.956 38.1347 167.786 39.8541L167.777 39.8451Z" fill="black"/>
<g style="mix-blend-mode:multiply">
<path d="M167.553 38.4839C166.881 45.084 158.875 50.0363 151.254 49.499C143.633 48.9617 137.086 43.8482 134.319 37.6689C130.809 29.8419 132.985 20.3313 139.683 14.2685C146.382 8.20568 157.227 7.79373 166.397 10.4983C176.141 13.3819 180.708 21.3791 185.24 29.3941C195.323 47.2333 193.255 60.3709 189.359 79.9474C185.741 47.5199 145.719 58.0156 143.892 48.6393" fill="#E0D4CA"/>
</g>
<path d="M189.925 181.564C184.668 187.618 177.933 193.054 170.017 195.024C168.342 195.445 167.626 192.848 169.3 192.436C176.787 190.574 183.056 185.388 188.026 179.666C189.164 178.358 191.053 180.266 189.925 181.564Z" fill="black"/>
<path d="M193.246 167.997C193.246 167.997 166.595 200.469 135.645 191.281C104.704 182.093 107.149 165.848 109.603 149.003C110.57 142.384 113.283 135.211 120.322 123.265C127.37 111.318 136.558 102.434 136.558 102.434C136.558 102.434 86.6142 177.194 149.123 184.851C176.598 188.218 193.246 167.997 193.246 167.997Z" fill="#E0D4CA"/>
<path d="M159.61 40.1129C155.849 38.6489 154.07 34.2002 155.636 30.1765C157.202 26.1528 161.521 24.0779 165.282 25.5419C169.043 27.006 170.822 31.4547 169.256 35.4784C167.689 39.502 163.371 41.577 159.61 40.1129Z" fill="white" stroke="black" stroke-width="2" stroke-miterlimit="10"/>
<path d="M160.185 31.4066L161.698 37.4515L161.564 31.3439C163.713 31.5857 165.379 33.4036 165.379 35.6156C165.379 37.9888 163.453 39.9142 161.08 39.9142C158.707 39.9142 156.782 37.9888 156.782 35.6156C156.782 33.5469 158.241 31.8275 160.185 31.4155V31.4066ZM158.259 35.6066C158.824 35.929 159.495 35.8037 159.773 35.3201C160.05 34.8365 159.818 34.1917 159.262 33.8693C158.698 33.5469 158.027 33.6723 157.749 34.1559C157.471 34.6395 157.704 35.2842 158.259 35.6066Z" fill="black"/>
<path d="M136.401 51.552C133.147 50.2853 131.533 46.6281 132.796 43.3833C134.06 40.1386 137.721 38.5351 140.975 39.8018C144.229 41.0685 145.843 44.7257 144.58 47.9705C143.317 51.2152 139.655 52.8187 136.401 51.552Z" fill="white" stroke="black" stroke-width="2" stroke-miterlimit="10"/>
<path d="M137.242 43.944L138.657 49.3083L138.531 43.8813C140.537 44.0963 142.096 45.7083 142.096 47.6695C142.096 49.774 140.296 51.4845 138.084 51.4845C135.872 51.4845 134.072 49.774 134.072 47.6695C134.072 45.8336 135.433 44.3023 137.251 43.9351L137.242 43.944ZM135.451 47.6784C135.97 47.965 136.606 47.8486 136.866 47.4277C137.125 46.9978 136.911 46.4247 136.391 46.1381C135.872 45.8515 135.236 45.968 134.976 46.3889C134.716 46.8098 134.931 47.3919 135.451 47.6784Z" fill="black"/>
<path d="M158.715 46.1677C160.802 62.2785 166.256 85.3834 171.002 100.921C161.241 86.9058 155.205 64.0517 148.882 46.7319" fill="#2CADC5"/>
<path d="M160.058 46.1677C161.966 60.765 165.315 75.2279 169.121 89.4312C170.115 93.1567 171.172 96.8731 172.3 100.563C172.766 102.094 170.679 102.802 169.846 101.602C165.646 95.5298 162.575 88.7506 159.834 81.9176C156.861 74.4757 154.336 66.8636 151.792 59.2694C150.431 55.2037 149.052 51.129 147.583 47.099C146.992 45.4692 149.589 44.7706 150.171 46.3826C155.464 60.9083 159.494 75.9892 166.255 89.9417C167.984 93.5059 169.909 96.9896 172.166 100.249L169.712 101.288C165.36 87.0312 161.858 72.4518 159.198 57.7918C158.5 53.941 157.882 50.0722 157.372 46.1856C157.273 45.4602 158.061 44.8512 158.715 44.8423C159.521 44.8423 159.969 45.4692 160.058 46.1856V46.1677Z" fill="black"/>
<path d="M162.164 20.1791C162.164 20.1791 154.874 18.6477 151.418 26.7076" stroke="black" stroke-width="2" stroke-miterlimit="10" stroke-linecap="round"/>
<path d="M141.941 34.1406C141.941 34.1406 135.395 30.5763 129.771 37.3018" stroke="black" stroke-width="2" stroke-miterlimit="10" stroke-linecap="round"/>
<path d="M214.712 107.503C218.241 146.477 209.769 167.674 200.76 175.089C199.506 176.119 187.479 106.348 196.273 80.1981C197.007 78.004 198.87 74.798 200.124 77.5294C200.742 78.8638 213.387 92.87 214.712 107.503Z" fill="#261C13"/>
<path d="M206.819 155.192L199.787 150.5C199.787 150.5 191.467 145.742 192.658 138.152C194.019 129.469 186.546 116.844 177.912 112.611C168.278 107.881 154.161 105.281 141.461 121.576C136.697 127.69 136.665 135.853 138.086 141.38C141.385 154.17 151.571 160.483 164.944 160.527C169.038 160.541 172.737 160.421 176.823 157.648C178.146 156.752 182.06 153.833 185.765 153.815C189.18 153.798 191.47 154.439 195.455 157.254C198.708 159.549 201.028 161.036 202.482 161.922C203.51 162.544 204.845 162.248 205.501 161.235L207.446 158.246C208.11 157.229 207.829 155.859 206.815 155.185L206.819 155.192Z" fill="#D8D0CA" stroke="black" stroke-width="2" stroke-miterlimit="10"/>
<path d="M148.688 153.977C148.688 153.977 155.139 158.273 160.75 159.224C170.248 160.837 175.324 158.1 181.644 152.866C181.625 153.52 175.897 156.897 169.061 157.745C162.226 158.592 154.321 156.826 148.694 153.973L148.688 153.977Z" fill="#96887E"/>
<path d="M206.025 157.323L204.773 159.639C204.773 159.639 204.253 161.33 202.661 160.463C201.068 159.595 191.834 153.269 191.834 153.269C191.834 153.269 186.894 151.438 184.404 152.479C184.404 152.479 189.018 150.115 197.018 155.356C205.019 160.598 206.025 157.323 206.025 157.323Z" fill="#96887E"/>
<path d="M191.451 137.036C192.601 128.827 185.451 116.746 177.349 112.611C168.306 107.989 154.109 105.541 142.512 120.803C138.165 126.526 136.975 132.364 138.384 137.625C141.636 149.8 151.348 156.633 164.538 157.047C168.334 157.171 174.085 157.143 177.859 154.577C179.08 153.749 189.653 141.12 191.458 137.032L191.451 137.036Z" fill="#C1272D" stroke="black" stroke-miterlimit="10"/>
<path d="M150.765 114.742C150.765 114.742 144.831 118.265 142.356 123.982C139.881 129.699 139.485 134.7 139.937 138.427C139.937 138.427 140.357 122.944 150.763 114.753L150.765 114.742Z" fill="white"/>
<path d="M167.544 111.72C167.544 111.72 182.135 109.574 189.789 132.835C189.789 132.835 191.133 137.236 188.946 140.692C186.759 144.147 182.28 149.321 182.28 149.321C182.28 149.321 190.507 125.448 167.544 111.72Z" fill="#8E252D"/>
<path d="M196.747 80.3568L196.747 80.3575C194.575 86.8174 193.677 96.0162 193.588 106.206C193.498 116.384 194.215 127.506 195.246 137.786C196.277 148.066 197.621 157.496 198.786 164.29C199.368 167.688 199.905 170.42 200.333 172.267C200.548 173.194 200.733 173.884 200.88 174.322C200.881 174.324 200.882 174.327 200.883 174.329C205.122 170.613 209.258 163.679 211.953 153.008C214.739 141.978 215.975 126.994 214.214 107.548C213.562 100.347 210.117 93.2665 206.728 87.7925C205.036 85.0608 203.366 82.7404 202.077 81.0174C201.652 80.4491 201.271 79.9491 200.943 79.5184C200.773 79.294 200.616 79.0884 200.475 78.9017C200.271 78.6316 200.099 78.4002 199.967 78.2138C199.843 78.0383 199.731 77.8702 199.67 77.7395L199.669 77.738C199.378 77.1027 199.131 76.9948 199.029 76.981C198.912 76.965 198.69 77.0283 198.362 77.3653C197.726 78.019 197.106 79.284 196.747 80.3568ZM201.054 174.747C201.054 174.747 201.053 174.745 201.05 174.741C201.052 174.745 201.054 174.747 201.054 174.747Z" fill="#261C13" stroke="black"/>
<path d="M122.48 291.42C127.163 291.42 130.96 287.52 130.96 282.71C130.96 277.9 127.163 274 122.48 274C117.797 274 114 277.9 114 282.71C114 287.52 117.797 291.42 122.48 291.42Z" fill="#E0D3D4" stroke="black" stroke-width="2" stroke-miterlimit="10"/>
<path d="M119.149 279.66C119.149 279.66 114.419 284.37 119.019 288.67C122.879 292.27 127.389 287.9 127.389 287.9C127.389 287.9 120.569 288.93 118.639 285.97C116.709 283.01 119.149 279.66 119.149 279.66Z" fill="#2CADC5"/>
</svg>
