<svg width="133" height="158" viewBox="0 0 133 158" fill="none" xmlns="http://www.w3.org/2000/svg">
<g clip-path="url(#clip0_1500_197)">
<path d="M47.921 31.6554H34.9258C41.272 53.0277 48.4558 76.592 54.8342 81.8593C61.5412 87.391 67.2947 74.0518 67.2947 74.0518C75.0068 64.0846 60.0529 45.1042 47.921 31.6619V31.6554Z" fill="#261C13" stroke="black" stroke-miterlimit="10"/>
<path d="M92.9787 92.8065C104.241 68.4299 117.204 45.3234 131.571 24.0349C111.431 40.0432 92.9594 61.4219 77.6641 86.411" fill="white"/>
<path d="M93.8082 93.2965C98.1765 83.8515 102.815 74.5418 107.751 65.3804C112.602 56.3673 117.731 47.509 123.136 38.8182C126.139 34.0022 129.225 29.2378 132.395 24.5314C133.058 23.5449 131.666 22.7262 130.874 23.358C122.756 29.818 115.166 36.9228 108.086 44.511C100.625 52.5055 93.7374 61.0286 87.3911 69.9321C83.6801 75.1414 80.1558 80.4796 76.812 85.9339C76.1612 86.9977 77.8299 87.9712 78.4807 86.9074C84.305 77.4043 90.6835 68.2301 97.6546 59.5264C104.626 50.8228 111.513 43.3183 119.258 35.9944C123.426 32.0552 127.749 28.29 132.24 24.7183L130.719 23.5449C125.063 31.9391 119.676 40.5203 114.567 49.2561C109.361 58.1596 104.439 67.2243 99.8001 76.4373C97.1521 81.6852 94.6007 86.9783 92.1331 92.3166C91.6112 93.4384 93.2799 94.4248 93.8018 93.2901L93.8082 93.2965Z" fill="black"/>
<path d="M108.556 60.5966L126.706 29.7987L99.0078 64.7228L102.352 73.2717L108.556 60.5966Z" fill="#E0D4CA"/>
<path d="M65.5038 125.745C55.4594 133.05 39.1139 142.114 26.75 143.281C29.4431 145.157 31.0023 151.45 40.2478 153.01C45.5889 153.913 66.4896 149.586 70.7998 147.936C72.1851 147.407 63.8222 143.642 62.9396 139.767C62.044 135.848 65.4587 130.993 68.416 128.272" fill="#2CADC5"/>
<path d="M65.0157 124.907C60.6023 128.111 55.9635 130.999 51.17 133.591C46.0737 136.344 40.7776 138.788 35.2368 140.496C32.4728 141.347 29.6315 142.03 26.7515 142.314C25.7786 142.411 25.4629 143.539 26.2619 144.119C27.4602 144.977 28.5491 146.84 29.5993 148.091C31.3131 150.128 33.407 151.74 35.8682 152.771C38.1296 153.713 40.4941 154.164 42.9295 154.087C45.3649 154.009 47.7553 153.693 50.1456 153.352C55.5576 152.578 60.9502 151.534 66.2591 150.231C67.232 149.993 68.2049 149.748 69.1713 149.47C69.8543 149.277 70.6532 149.116 71.2846 148.768C73.3914 147.614 69.9831 145.551 69.1649 144.964C67.9794 144.113 66.7875 143.249 65.7373 142.237C64.8482 141.386 63.9719 140.399 63.8044 139.136C63.5467 137.214 64.3714 135.255 65.3185 133.63C66.33 131.889 67.6315 130.335 69.1069 128.962C70.0218 128.111 68.6495 126.744 67.741 127.595C65.2669 129.897 62.9797 132.895 62.1357 136.222C61.7685 137.666 61.6718 139.297 62.2452 140.702C62.7027 141.824 63.5145 142.772 64.3778 143.604C66.0401 145.202 68.1082 146.331 69.8027 147.826C69.8994 147.91 70.0153 148.078 70.1249 148.142C70.1635 148.162 70.0798 148.117 70.0927 148.11C69.9702 148.181 70.3053 146.969 70.3697 147.079C70.3375 147.021 70.6467 147.059 70.4212 147.053C70.3633 147.053 70.2602 147.111 70.2022 147.13C70.0347 147.188 69.8672 147.246 69.6996 147.298C68.9136 147.549 68.1211 147.762 67.3287 147.975C62.3161 149.283 57.2069 150.289 52.0977 151.114C49.6301 151.514 47.1496 151.862 44.6562 152.056C43.6834 152.133 42.704 152.185 41.7312 152.165C40.6423 152.14 39.9465 152.011 38.7803 151.708C35.8166 150.94 33.291 149.367 31.2809 147.066C29.9472 145.544 28.9292 143.636 27.2605 142.45L26.7708 144.255C32.2602 143.72 37.5755 141.979 42.6396 139.851C48.1289 137.55 53.4056 134.752 58.4697 131.631C61.0404 130.045 63.5596 128.369 66.0079 126.59C67.0065 125.867 66.0401 124.185 65.035 124.92L65.0157 124.907Z" fill="black"/>
<path d="M64.1582 115.139C63.5976 116.738 60.7692 123.553 61.2009 125.197C61.8709 127.744 64.9055 128.794 67.5213 129.039C69.0612 129.181 70.6912 129.175 72.0507 128.433C73.4101 127.692 74.3572 126.009 73.8096 124.559" fill="white"/>
<path d="M63.2225 114.882C62.1401 117.944 60.5745 121.039 60.2201 124.307C60.0075 126.241 61.4507 127.905 63.0614 128.775C65.1167 129.884 67.784 130.29 70.0841 130.013C71.5467 129.832 72.9641 129.284 73.9112 128.111C74.7745 127.047 75.1804 125.642 74.7359 124.307C74.3429 123.134 72.4744 123.637 72.8739 124.823C73.1703 125.7 72.8095 126.564 72.1523 127.176C71.3598 127.918 70.2065 128.124 69.1564 128.143C67.2944 128.188 65.2391 127.885 63.6413 126.873C62.9261 126.422 62.4365 125.822 62.153 125.029C62.0563 124.759 62.1272 125.068 62.1207 124.913C62.1207 124.81 62.1207 124.707 62.1207 124.61C62.1336 124.294 62.1594 124.204 62.2238 123.875C62.5267 122.373 63.0421 120.91 63.5575 119.472C64.0472 118.112 64.5948 116.771 65.078 115.404C65.4968 114.23 63.6284 113.721 63.216 114.888L63.2225 114.882Z" fill="black"/>
<path d="M93.412 121.793C96.0536 124.829 102.065 133.062 103.56 136.757C103.74 137.208 103.914 137.711 103.74 138.162C103.56 138.626 103.063 138.891 102.606 139.116C95.7637 142.495 88.6765 145.428 81.4219 147.878C90.7189 149.219 99.4361 152.913 108.334 155.84C111.098 156.749 114.145 157.587 116.871 156.575C118.346 156.027 119.564 154.989 120.743 153.971C122.469 152.481 124.202 150.986 125.929 149.496C126.148 149.303 126.38 149.097 126.457 148.826C126.606 148.291 126.122 147.801 125.684 147.446C121.065 143.694 116.097 140.341 110.853 137.453C109.358 136.628 107.799 135.809 106.736 134.5C105.995 133.591 105.538 132.495 105.093 131.418C103.637 127.898 102.181 124.385 100.731 120.864" fill="#2CADC5"/>
<path d="M92.7276 122.476C95.6591 125.861 98.2878 129.594 100.646 133.391C101.187 134.268 101.715 135.158 102.186 136.08C102.34 136.383 102.501 136.692 102.63 137.015C102.759 137.337 102.946 137.692 102.701 137.962C102.456 138.233 101.896 138.401 101.574 138.555C98.4939 140.064 95.3627 141.482 92.1993 142.798C88.5719 144.306 84.893 145.686 81.1691 146.95C80.3637 147.22 80.1447 148.665 81.1691 148.813C87.1932 149.703 93.0046 151.546 98.7452 153.545C101.574 154.525 104.389 155.544 107.23 156.491C110.072 157.439 112.926 158.367 115.883 157.845C118.84 157.323 120.857 155.15 122.957 153.339C124.175 152.288 125.419 151.263 126.611 150.186C127.603 149.283 127.674 148.091 126.739 147.098C125.805 146.105 124.51 145.28 123.408 144.442C122.236 143.558 121.05 142.701 119.839 141.869C117.378 140.174 114.839 138.588 112.243 137.118C110.896 136.357 109.427 135.693 108.255 134.668C107.082 133.643 106.451 132.179 105.845 130.722C104.454 127.35 103.055 123.978 101.664 120.607C101.193 119.472 99.3251 119.968 99.8018 121.122C100.974 123.959 102.147 126.789 103.32 129.626C104.35 132.121 105.182 134.732 107.392 136.447C109.601 138.162 112.037 139.194 114.311 140.58C116.734 142.063 119.092 143.642 121.379 145.325C122.532 146.17 123.673 147.04 124.781 147.942C125.019 148.136 125.245 148.329 125.451 148.561C125.58 148.703 125.515 148.652 125.541 148.529C125.522 148.6 125.27 148.793 125.245 148.813C124.671 149.335 124.066 149.831 123.473 150.341C122.333 151.327 121.192 152.307 120.052 153.294C119.072 154.132 118.074 155.002 116.888 155.531C114.234 156.717 111.186 155.763 108.59 154.912C105.839 154.009 103.113 153.029 100.382 152.075C94.2739 149.935 88.0952 147.897 81.6716 146.95V148.813C88.7974 146.395 95.775 143.533 102.54 140.225C103.197 139.903 103.893 139.606 104.344 139.007C104.917 138.246 104.814 137.343 104.486 136.499C104.138 135.596 103.674 134.739 103.197 133.901C101.902 131.638 100.427 129.471 98.9127 127.35C97.3986 125.229 95.8137 123.089 94.0934 121.103C93.2752 120.162 91.9158 121.535 92.7276 122.47V122.476Z" fill="black"/>
<path d="M86.1281 25.6532C85.6063 30.914 79.4018 34.8597 73.5001 34.4342C67.5985 34.0086 62.5215 29.9276 60.376 25.002C57.6507 18.7612 59.3452 11.1793 64.5381 6.34398C69.7311 1.50863 78.1519 -0.322357 85.2519 1.83743C92.803 4.13261 98.1054 10.2574 101.617 16.653C109.432 30.8753 109.477 44.0146 106.455 59.6231C103.434 75.2316 117.518 98.9249 110.231 113.366C108.594 116.603 104.948 123.482 103.054 124.572C101.643 125.384 100.431 126.667 96.9779 125.925C94.8582 125.474 89.7877 123.656 87.1268 124.572C75.4588 128.575 49.3458 122.779 45.0227 112.309C40.6995 101.839 44.2302 89.944 50.4862 80.2862C54.7321 73.723 42.7677 67.0631 46.962 60.4741C51.1563 53.8852 66.8124 39.5596 65.395 32.081" fill="white"/>
<path d="M85.1611 25.6532C84.8261 28.5931 82.4938 30.856 79.9811 32.1454C77.0882 33.6283 73.7508 33.8539 70.6518 32.9255C64.4216 31.0688 59.9953 25.1116 60.0533 18.6193C60.1113 11.895 64.5117 6.16991 70.5938 3.59751C76.6759 1.0251 84.0658 1.43772 89.858 4.95785C95.7145 8.51023 99.6511 14.4351 102.512 20.5212C105.617 27.1425 107.221 34.3246 107.344 41.6356C107.402 45.2976 107.131 48.966 106.655 52.5957C106.21 55.9418 105.334 59.2492 105.121 62.621C104.754 68.4815 106.049 74.3935 107.35 80.067C108.729 86.0886 110.385 92.0909 111.087 98.2415C111.403 101.007 111.525 103.818 111.203 106.597C110.913 109.131 110.121 111.477 108.961 113.74C107.666 116.261 106.319 118.776 104.747 121.135C103.62 122.837 102.415 124.23 100.45 124.92C99.1421 125.377 97.7634 125.132 96.4555 124.797C95.1476 124.462 93.7688 124.056 92.4093 123.772C91.0499 123.488 89.5165 123.231 88.0733 123.392C86.9845 123.514 85.9536 123.946 84.8905 124.191C80.1035 125.281 74.9492 125.004 70.1299 124.281C64.8661 123.495 59.5765 122.083 54.7895 119.73C51.0526 117.892 47.1933 115.359 45.6664 111.297C43.0699 104.373 43.9655 96.8231 46.5491 90.0407C47.2191 88.2807 48.0116 86.5722 48.8878 84.9152C49.7189 83.3357 50.7562 81.8786 51.5938 80.3055C52.7278 78.178 52.4765 75.8441 51.5745 73.6908C50.6725 71.5374 49.1971 69.4357 48.1082 67.2565C47.174 65.3804 46.5168 63.2142 47.6121 61.2607C48.5979 59.5006 50.0089 57.934 51.2974 56.3931C53.0241 54.33 54.7959 52.3121 56.529 50.249C59.86 46.284 63.4358 42.1127 65.4588 37.2838C66.1869 35.5495 66.6637 33.6927 66.3286 31.8102C66.1096 30.5852 64.2476 31.1074 64.4666 32.3259C64.7759 34.0731 63.9512 36.1104 63.1459 37.7158C61.9475 40.0947 60.3948 42.2932 58.784 44.4079C55.4209 48.8177 51.6003 52.8407 48.1662 57.1926C46.8132 58.9075 45.3378 60.6805 45.1252 62.937C44.8932 65.3804 46.1174 67.7272 47.29 69.7838C48.4626 71.8405 50.0089 73.9745 50.3954 76.3728C50.5565 77.385 50.4212 78.423 49.938 79.332C49.0811 80.9438 48.018 82.4395 47.1676 84.0578C43.6691 90.7112 41.427 98.364 42.387 105.933C42.7606 108.899 43.5016 112.154 45.2347 114.656C46.5168 116.506 48.2435 117.996 50.0991 119.253C54.5511 122.27 59.8471 124.088 65.053 125.274C70.2588 126.461 75.98 127.138 81.4436 126.654C82.6226 126.551 83.8017 126.39 84.9614 126.151C86.0373 125.932 87.094 125.448 88.1764 125.313C90.9597 124.958 93.8139 126.17 96.4748 126.789C97.9695 127.138 99.5803 127.279 101.056 126.751C102.022 126.403 102.969 125.829 103.8 125.229C104.696 124.584 105.366 123.63 105.997 122.741C106.854 121.516 107.627 120.226 108.368 118.924C109.721 116.551 111.158 114.108 112.067 111.523C112.975 108.937 113.336 105.991 113.336 103.18C113.336 96.8682 111.835 90.6145 110.391 84.5091C108.955 78.423 107.305 72.2595 107.041 65.98C106.983 64.6003 106.996 63.2142 107.125 61.8409C107.286 60.1196 107.685 58.4304 107.975 56.7348C108.613 52.9568 109.09 49.1401 109.245 45.304C109.547 37.7931 108.51 30.2693 105.785 23.2419C103.059 16.2146 99.4127 9.87057 93.743 5.31889C88.0733 0.767214 81.0764 -0.97996 74.0343 0.509328C66.9923 1.99862 61.3483 6.42135 59.0611 13.0812C56.7739 19.7411 58.6552 26.6976 63.7451 31.1977C68.9058 35.7623 76.6759 36.9743 82.5002 32.8868C84.9614 31.159 86.7461 28.6898 87.094 25.6532C87.2357 24.4218 85.3029 24.4282 85.1611 25.6532Z" fill="black"/>
<g style="mix-blend-mode:multiply">
<path d="M86.9289 24.7764C86.4457 29.0121 80.6858 32.1906 75.2029 31.8424C69.72 31.5007 65.0103 28.2127 63.0194 24.2477C60.4938 19.2254 62.0594 13.1199 66.8787 9.22586C71.698 5.33179 79.5003 5.06745 86.0978 6.80818C93.1076 8.65851 96.3935 13.7904 99.6535 18.9352C106.908 30.3854 105.42 38.8182 102.617 51.3837C100.014 30.5723 71.2212 37.3096 69.9069 31.2944" fill="#E0D4CA"/>
</g>
<path d="M109.527 111.909C105.958 116.029 101.441 119.762 96.0551 121.103C94.8503 121.406 95.3593 123.269 96.5705 122.966C102.266 121.548 107.111 117.634 110.893 113.276C111.705 112.341 110.345 110.968 109.527 111.909Z" fill="black"/>
<path d="M105.417 107.899C105.417 107.899 86.2434 128.743 63.9769 122.844C41.7168 116.945 43.4757 106.52 45.2411 95.7078C45.9369 91.4591 47.8891 86.8558 52.9532 79.1902C58.0237 71.5181 64.6341 65.8188 64.6341 65.8188C64.6341 65.8188 28.7022 113.798 73.6734 118.718C93.4401 120.877 105.417 107.899 105.417 107.899Z" fill="#E0D4CA"/>
<path d="M85.0749 28.0706C87.2989 25.9004 87.4585 22.4548 85.4313 20.3746C83.4041 18.2945 79.9579 18.3675 77.7339 20.5377C75.5099 22.7079 75.3504 26.1535 77.3775 28.2337C79.4047 30.3138 82.851 30.2408 85.0749 28.0706Z" fill="white" stroke="black" stroke-width="2" stroke-miterlimit="10"/>
<path d="M80.6266 23.8609L79.8148 28.2707L81.5479 24.2283C82.8816 25.0213 83.4356 26.7169 82.7785 28.1675C82.0698 29.7213 80.24 30.4112 78.6873 29.702C77.1345 28.9928 76.4451 27.1618 77.1539 25.608C77.7659 24.2541 79.2349 23.5578 80.633 23.8673L80.6266 23.8609ZM78.1203 26.0464C78.3909 26.4268 78.8741 26.5429 79.1962 26.3108C79.5184 26.0787 79.5635 25.5822 79.2929 25.2083C79.0223 24.8279 78.5391 24.7119 78.2169 24.944C77.8948 25.1761 77.8497 25.6725 78.1203 26.0464Z" fill="black"/>
<path d="M66.4352 31.2947C68.3662 29.4103 68.4011 26.3122 66.513 24.3748C64.625 22.4374 61.529 22.3944 59.598 24.2788C57.667 26.1631 57.6321 29.2612 59.5202 31.1986C61.4082 33.136 64.5042 33.179 66.4352 31.2947Z" fill="white" stroke="black" stroke-width="2" stroke-miterlimit="10"/>
<path d="M63.1139 26.9684L62.3859 31.2106L64.0352 27.3423C65.3818 28.1353 65.9617 29.7793 65.3367 31.1655C64.6602 32.6548 62.8433 33.2801 61.2841 32.5709C59.725 31.8618 59.0034 30.0759 59.6799 28.5866C60.2662 27.2907 61.7223 26.646 63.1139 26.9748V26.9684ZM60.6527 29.025C60.9298 29.3925 61.413 29.5214 61.7287 29.3022C62.0508 29.083 62.0831 28.606 61.806 28.2385C61.529 27.871 61.0458 27.742 60.7301 27.9612C60.4144 28.1804 60.3757 28.6575 60.6527 29.025Z" fill="black"/>
<path d="M117.974 63.24C110.52 66.5538 107.64 63.8267 107.846 56.6768C107.878 55.5743 105.797 57.805 106.048 58.8043C106.409 60.2421 105.81 65.6383 106.242 69.1778C107.331 78.0748 112.066 79.8929 112.066 79.8929L115.964 81.5305L117.974 63.2335V63.24Z" fill="#261C13"/>
<path d="M93.2993 36.1749H9.31018C4.52427 36.1749 0.644531 40.0572 0.644531 44.8463V102.471C0.644531 107.26 4.52427 111.142 9.31018 111.142H93.2993C98.0852 111.142 101.965 107.26 101.965 102.471V44.8463C101.965 40.0572 98.0852 36.1749 93.2993 36.1749Z" fill="#F7931E" stroke="black" stroke-width="2" stroke-miterlimit="10"/>
<path d="M92.0543 40.0432H10.5521C7.12549 40.0432 4.34766 42.8229 4.34766 46.2518V101.065C4.34766 104.494 7.12549 107.274 10.5521 107.274H92.0543C95.481 107.274 98.2588 104.494 98.2588 101.065V46.2518C98.2588 42.8229 95.481 40.0432 92.0543 40.0432Z" fill="white"/>
<path d="M75.6553 28.1418C72.7625 34.5825 69.9792 44.8205 68.7164 52.1445C66.8028 43.3248 69.1932 32.9384 70.0243 24.3508" fill="#2CADC5"/>
<path d="M75.0291 27.7743C73.3411 31.5587 72.0461 35.5108 70.9121 39.4887C69.7782 43.4666 68.7473 47.7475 68.0193 51.951H69.4174C67.4845 42.8348 69.8555 33.4478 70.7511 24.3508C70.8413 23.4225 69.3916 23.4289 69.3014 24.3508C68.3865 33.6025 66.0542 43.0604 68.0193 52.3314C68.161 53.0084 69.295 53.0406 69.4174 52.3314C70.1325 48.2181 71.099 44.1436 72.2394 40.127C73.3797 36.1104 74.6103 32.2486 76.2855 28.5028C76.6656 27.6582 75.4157 26.9168 75.0356 27.7678L75.0291 27.7743Z" fill="black"/>
<path d="M48.0206 32.081C47.853 31.5201 47.4794 31.0752 47.0026 30.8689C45.9588 30.424 43.9229 29.7342 41.3007 29.7342C38.1952 29.7342 36.3268 30.25 35.3088 30.6755C34.7998 30.8882 34.6645 31.6426 35.0511 32.081C39.181 36.6649 42.9822 40.6041 45.4434 43.3248C55.1206 54.0141 48.0206 32.0874 48.0206 32.0874C48.0206 32.0874 48.0206 32.0874 48.0206 32.081Z" fill="#261C13" stroke="black" stroke-miterlimit="10"/>
<path d="M113.564 90.5436C102.179 91.9104 92.8369 81.4209 91.1037 75.7023C90.8653 74.9028 110.374 73.781 117.964 63.3754C118.544 62.5824 120.522 70.5897 119.233 77.3592C118.853 79.3772 117.835 90.0343 113.557 90.55L113.564 90.5436Z" fill="#261C13"/>
<path d="M56.1445 21.6495C56.1445 21.6495 57.4589 16.3628 66.1503 21.8622" stroke="black" stroke-width="2" stroke-miterlimit="10" stroke-linecap="round"/>
<path d="M84.368 16.2984C84.2649 14.6286 77.3581 10.0382 74.1367 16.1501" stroke="black" stroke-width="2" stroke-miterlimit="10" stroke-linecap="round"/>
<rect x="14.5" y="55.5" width="32" height="38" rx="3.5" fill="#D9D9D9" stroke="black"/>
<rect x="58.5" y="55.5" width="32" height="38" rx="3.5" fill="#D9D9D9" stroke="black"/>
<path d="M35.572 83.26C36.116 83.26 36.5693 83.4413 36.932 83.804C37.2947 84.1667 37.476 84.62 37.476 85.164C37.476 85.6853 37.2947 86.1273 36.932 86.49C36.5693 86.83 36.116 87 35.572 87H24.012C23.4227 87 22.958 86.8187 22.618 86.456C22.278 86.0933 22.108 85.6287 22.108 85.062C22.108 84.4953 22.312 83.9967 22.72 83.566L30.132 75.644C30.9707 74.7373 31.628 73.808 32.104 72.856C32.6027 71.904 32.852 71.0767 32.852 70.374C32.852 69.2407 32.5233 68.334 31.866 67.654C31.2087 66.9513 30.336 66.6 29.248 66.6C28.8173 66.6 28.3753 66.702 27.922 66.906C27.4687 67.11 27.0267 67.3933 26.596 67.756C26.188 68.1187 25.8027 68.538 25.44 69.014C25.168 69.3767 24.896 69.6033 24.624 69.694C24.352 69.7847 24.1027 69.83 23.876 69.83C23.3773 69.83 22.9127 69.6487 22.482 69.286C22.074 68.9007 21.87 68.4587 21.87 67.96C21.87 67.5747 21.9947 67.2007 22.244 66.838C22.516 66.4753 22.8447 66.1013 23.23 65.716C23.7967 65.1493 24.4313 64.6507 25.134 64.22C25.8367 63.7893 26.562 63.4607 27.31 63.234C28.058 62.9847 28.7833 62.86 29.486 62.86C31.0047 62.86 32.3193 63.166 33.43 63.778C34.5633 64.3673 35.436 65.2173 36.048 66.328C36.66 67.416 36.966 68.708 36.966 70.204C36.966 71.4507 36.592 72.8447 35.844 74.386C35.1187 75.9047 34.1327 77.3327 32.886 78.67L28.296 83.566L27.922 83.26H35.572Z" fill="#F13D3D"/>
<path d="M76.0373 87C75.4026 87 74.8813 86.8073 74.4733 86.422C74.0653 86.014 73.8613 85.5153 73.8613 84.926V67.79L74.3373 68.538L71.8553 70.374C71.538 70.6233 71.1413 70.748 70.6653 70.748C70.1213 70.748 69.6453 70.544 69.2373 70.136C68.8293 69.728 68.6253 69.2407 68.6253 68.674C68.6253 67.9487 68.9766 67.3593 69.6793 66.906L74.5753 63.642C74.802 63.4833 75.0513 63.37 75.3233 63.302C75.618 63.234 75.89 63.2 76.1393 63.2C76.7966 63.2 77.318 63.404 77.7033 63.812C78.0886 64.1973 78.2813 64.6847 78.2813 65.274V84.926C78.2813 85.5153 78.066 86.014 77.6353 86.422C77.2273 86.8073 76.6946 87 76.0373 87Z" fill="#1827CC"/>
</g>
<defs>
<clipPath id="clip0_1500_197">
<rect width="133" height="158" fill="white"/>
</clipPath>
</defs>
</svg>
