<svg width="225" height="289" viewBox="0 0 225 289" fill="none" xmlns="http://www.w3.org/2000/svg">
<path d="M141.864 214.323C162.258 228.004 195.297 244.689 219.918 246.061C214.681 249.97 211.981 262.525 193.716 266.295C183.164 268.476 141.392 261.494 132.727 258.557C129.948 257.616 146.317 249.556 147.825 241.833C149.35 234.013 142.281 224.687 136.232 219.53" fill="#2CADC5"/>
<path d="M141.082 215.604C150.263 221.748 159.902 227.234 169.839 232.081C180.292 237.181 191.16 241.653 202.443 244.617C208.135 246.117 213.976 247.21 219.873 247.561L218.874 244.997C216.065 247.143 214.294 250.58 212.17 253.335C209.052 257.383 205.136 260.615 200.438 262.675C196.037 264.6 191.989 265.268 187.394 265.219C182.8 265.171 177.798 264.721 173.024 264.193C162.555 263.039 152.116 261.415 141.818 259.274C139.992 258.897 138.159 258.49 136.355 258.036C135.661 257.859 134.956 257.675 134.268 257.477C134.001 257.399 133.742 257.31 133.487 257.24C133.254 257.174 133.216 257.061 133.276 257.179C133.48 257.59 133.922 257.583 133.92 258.251C133.923 258.476 133.819 258.553 133.811 258.647C133.819 258.512 134.026 258.389 133.813 258.616C134.019 258.401 134.214 258.188 134.434 257.99C135.057 257.414 135.726 256.899 136.395 256.384C138.208 254.978 140.041 253.61 141.795 252.127C145.475 249.026 149.305 245.272 149.532 240.208C149.844 233.336 145.399 226.805 140.94 221.992C139.802 220.756 138.588 219.59 137.321 218.499C135.872 217.258 133.694 219.328 135.158 220.586C140.243 224.967 145.456 231.091 146.426 237.973C146.793 240.57 146.251 242.788 144.734 244.9C143.318 246.873 141.451 248.528 139.603 250.085C137.754 251.643 135.907 252.995 134.064 254.449C133.017 255.273 131.466 256.275 131.027 257.605C130.45 259.38 132.136 259.987 133.479 260.372C135.023 260.82 136.601 261.197 138.173 261.545C148.406 263.846 158.836 265.472 169.255 266.762C174.385 267.395 179.542 267.93 184.713 268.143C188.843 268.318 192.841 268.207 196.861 267.084C202.617 265.469 207.889 262.506 211.993 258.141C214.754 255.207 216.777 251.574 219.375 248.65C219.859 248.098 220.394 247.585 220.975 247.133C222.071 246.296 221.15 244.637 219.977 244.569C209.318 243.945 198.881 240.853 188.955 237.111C178.156 233.042 167.741 227.974 157.715 222.297C152.588 219.394 147.552 216.315 142.663 213.035C141.06 211.966 139.498 214.53 141.101 215.599L141.082 215.604Z" fill="black"/>
<path d="M148.94 191.771C150.221 194.879 156.542 208.055 155.858 211.35C154.8 216.465 148.893 218.867 143.719 219.631C140.684 220.081 137.446 220.24 134.678 218.925C131.909 217.601 129.851 214.37 130.784 211.453" fill="white"/>
<path d="M147.511 192.241C149.661 197.408 152.226 202.425 153.816 207.809C154.115 208.825 154.445 209.859 154.405 210.922C154.408 210.992 154.369 211.224 154.405 210.922C154.382 211.063 154.349 211.225 154.316 211.356C154.204 211.742 154.091 212.108 153.908 212.467C153.524 213.236 153.005 213.902 152.382 214.503C149.738 217.034 145.705 217.973 142.176 218.346C139.693 218.609 136.929 218.634 134.73 217.282C132.882 216.132 131.626 213.973 132.234 211.802C132.756 209.935 129.82 209.299 129.307 211.145C127.886 216.218 132.438 220.476 137.095 221.258C141.751 222.039 146.873 221.037 150.965 219.025C154.186 217.446 157.64 214.254 157.373 210.335C157.161 207.164 155.715 203.954 154.544 201.04C153.225 197.763 151.7 194.577 150.352 191.321C149.617 189.556 146.755 190.468 147.502 192.262L147.511 192.241Z" fill="black"/>
<path d="M63.0821 152C45.727 188.649 25.2 223.589 2 256C36.042 230.788 66.5532 197.868 91 159.959" fill="white"/>
<path d="M64.049 152.38C57.313 166.552 50.058 180.573 42.2742 194.427C34.63 208.031 26.457 221.461 17.7451 234.686C12.9351 242.007 7.94541 249.26 2.79609 256.445L0.440975 255.065C14.1525 244.925 26.7963 233.951 38.4022 222.4C50.8165 210.039 62.103 197.026 72.3318 183.559C78.3294 175.669 83.9577 167.621 89.2467 159.443C90.095 158.132 92.6796 159.284 91.8314 160.587C82.4907 175.025 72.0724 189.069 60.4864 202.544C49.5591 215.254 37.6039 227.463 24.521 238.945C17.5255 245.084 10.2007 251.011 2.54661 256.672C1.31915 257.581 -0.61683 256.429 0.191493 255.293C9.31257 242.575 17.9047 229.646 25.988 216.527C34.2907 203.044 42.0546 189.372 49.2996 175.54C53.4211 167.666 57.3729 159.739 61.155 151.773C61.8037 150.409 64.6977 151 64.039 152.38H64.049Z" fill="black"/>
<path d="M38.6427 200.159L10 247L55 193.236L48.1803 181L38.6427 200.159Z" fill="#E0D4CA"/>
<path d="M65.1613 216.713C70.4013 222.733 82.3313 239.063 85.2913 246.393C85.6513 247.283 86.0013 248.283 85.6513 249.183C85.2913 250.103 84.3113 250.633 83.4013 251.083C69.8213 257.783 55.7613 263.593 41.3613 268.463C59.8013 271.123 77.1113 278.443 94.7613 284.253C100.241 286.053 106.291 287.713 111.701 285.703C114.631 284.613 117.041 282.553 119.381 280.543C122.811 277.583 126.241 274.623 129.681 271.663C130.121 271.283 130.581 270.873 130.731 270.323C131.021 269.263 130.071 268.293 129.201 267.583C120.031 260.143 110.171 253.503 99.7713 247.773C96.8113 246.143 93.7113 244.513 91.6013 241.923C90.1313 240.113 89.2213 237.943 88.3413 235.813C85.4513 228.833 82.5713 221.863 79.6813 214.883" fill="#2CADC5"/>
<path d="M64.1011 217.773C69.9611 224.533 75.2311 232.003 79.9411 239.603C81.0211 241.353 82.0711 243.123 82.9911 244.953C83.3611 245.673 83.7211 246.413 84.0011 247.173C84.2111 247.763 84.4811 248.383 84.0511 248.913C83.6411 249.423 82.8011 249.703 82.2211 249.983C75.9611 253.063 69.6111 255.953 63.1711 258.633C55.8711 261.673 48.4611 264.453 40.9711 266.993C39.7211 267.413 39.3811 269.653 40.9711 269.883C52.7911 271.613 64.2011 275.223 75.4611 279.133C81.1811 281.113 86.8711 283.163 92.6111 285.093C97.9011 286.863 103.491 288.733 109.141 287.883C114.791 287.033 119.141 282.713 123.391 279.053C125.721 277.043 128.051 275.043 130.381 273.033C131.241 272.293 132.051 271.543 132.241 270.373C132.441 269.073 131.751 267.923 130.851 267.033C128.811 265.013 126.271 263.333 123.981 261.613C121.691 259.893 119.151 258.073 116.671 256.383C111.841 253.083 106.861 250.003 101.751 247.143C99.1211 245.673 96.2911 244.343 94.0511 242.303C91.8111 240.263 90.6011 237.333 89.4211 234.493C86.6611 227.823 83.9011 221.153 81.1411 214.473C80.4111 212.713 77.5111 213.483 78.2511 215.273C80.5711 220.883 82.8911 226.493 85.2211 232.103C87.3011 237.133 88.9611 242.283 93.4711 245.673C95.5211 247.213 97.8111 248.373 100.041 249.613C102.531 251.003 104.991 252.443 107.411 253.943C112.251 256.923 116.971 260.113 121.541 263.503C123.821 265.193 126.131 266.903 128.291 268.753C128.521 268.953 129.321 269.513 129.291 269.903C129.261 270.223 128.481 270.703 128.261 270.893C127.041 271.953 125.811 273.003 124.581 274.063C122.341 275.993 120.101 277.933 117.851 279.863C115.871 281.563 113.781 283.293 111.311 284.223C106.061 286.213 100.261 284.433 95.1711 282.773C89.7211 280.983 84.3111 279.043 78.9011 277.153C66.7811 272.913 54.5211 268.853 41.7711 266.993V269.883C55.9711 265.073 69.8611 259.373 83.3211 252.773C84.5211 252.183 85.8411 251.613 86.6311 250.483C87.6011 249.073 87.3411 247.473 86.7511 245.973C86.0211 244.123 85.0611 242.363 84.0711 240.643C81.5011 236.193 78.5911 231.933 75.6011 227.763C72.6111 223.593 69.5711 219.493 66.2311 215.633C64.9611 214.173 62.8511 216.303 64.1111 217.753L64.1011 217.773Z" fill="black"/>
<path d="M144.013 145.063L144.418 144.77L144.41 144.76C125.35 119.778 119.093 100.354 117.581 87.2107C116.825 80.6378 117.255 75.6287 117.869 72.2726C118.176 70.5942 118.529 69.3285 118.804 68.4867C118.941 68.0658 119.059 67.7508 119.141 67.5432C119.155 67.5067 119.169 67.4736 119.181 67.4438C123.809 66.1666 128.124 68.9087 132.16 74.4624C136.246 80.086 139.901 88.4133 143.11 97.6643C148.152 112.195 152.058 128.884 154.826 140.709C155.581 143.937 156.252 146.803 156.838 149.163C157.515 151.895 157.807 153.846 157.816 155.18C157.82 155.847 157.753 156.334 157.642 156.677C157.533 157.018 157.392 157.186 157.267 157.268C157.024 157.429 156.559 157.432 155.743 156.994C154.967 156.576 154.044 155.848 153.053 154.922C151.075 153.078 148.919 150.544 147.249 148.46C146.416 147.421 145.708 146.497 145.208 145.834C144.958 145.502 144.76 145.236 144.625 145.052C144.557 144.961 144.505 144.89 144.47 144.842L144.431 144.788L144.421 144.774L144.419 144.771L144.418 144.77C144.418 144.77 144.418 144.77 144.013 145.063Z" fill="#261C13" stroke="black"/>
<path d="M90.823 44.4928C91.633 53.6528 101.263 60.5128 110.423 59.7728C119.583 59.0328 127.463 51.9328 130.793 43.3628C135.023 32.5128 132.393 19.3128 124.333 10.9028C116.283 2.49284 103.203 -0.697163 92.183 3.06284C80.463 7.06284 72.233 17.7128 66.783 28.8428C54.653 53.5828 54.583 76.4428 59.273 103.593C63.963 130.743 42.103 171.963 53.413 197.093C55.953 202.723 61.613 214.693 64.553 216.593C66.743 218.003 68.623 220.233 73.983 218.953C77.273 218.163 85.143 215.013 89.273 216.593C107.383 223.563 147.913 213.473 154.623 195.263C161.333 177.053 155.853 156.353 146.143 139.553C139.553 128.133 131.093 117.863 124.583 106.393C118.073 94.9228 117.073 71.6028 119.273 58.5928" fill="white"/>
<path d="M89.3228 44.4929C90.3328 54.5129 100.233 61.8729 110.083 61.2929C120.613 60.6729 129.313 52.3529 132.633 42.7029C135.953 33.0529 134.053 20.8429 127.593 12.4129C121.133 3.98288 110.473 -0.54712 99.9828 0.0528802C89.4928 0.65288 79.8028 7.15288 73.2028 15.5929C66.0328 24.7829 61.2128 36.0329 58.2428 47.2429C55.2328 58.6029 54.4228 70.4229 55.1328 82.1329C55.5028 88.2429 56.2628 94.3329 57.2128 100.373C57.9628 105.123 58.5528 109.703 58.3828 114.533C58.0328 124.423 55.8728 134.183 53.8328 143.843C51.7928 153.503 49.5028 163.833 48.8028 174.013C48.4828 178.623 48.5428 183.253 49.2128 187.833C49.8328 192.023 51.1828 195.883 52.9528 199.713C54.8428 203.823 56.8128 207.913 59.0928 211.833C60.0528 213.483 61.0728 215.133 62.3228 216.583C63.2928 217.693 64.6228 218.553 65.8728 219.333C69.8628 221.833 74.0828 220.513 78.2528 219.273C80.5128 218.603 82.8328 217.923 85.1828 217.713C86.1428 217.633 87.1428 217.593 88.0928 217.813C88.9228 218.003 89.7228 218.373 90.5428 218.623C97.9728 220.903 106.153 220.613 113.753 219.573C122.353 218.403 130.883 215.983 138.673 212.123C145.093 208.943 151.773 204.403 155.103 197.833C157.433 193.223 158.433 187.783 158.863 182.683C159.373 176.783 158.863 170.823 157.683 165.023C155.223 153.003 149.733 141.963 143.073 131.743C139.473 126.213 135.603 120.873 131.943 115.383C128.963 110.913 125.733 106.323 123.853 101.243C120.433 91.9729 119.613 81.6529 119.703 71.8429C119.743 67.5429 119.993 63.2229 120.703 58.9829C121.013 57.0929 118.123 56.2829 117.813 58.1829C116.293 67.3029 116.373 76.8029 117.453 85.9629C117.993 90.5829 118.793 95.1929 120.163 99.6429C121.613 104.353 123.973 108.493 126.603 112.643C133.173 123.043 140.933 132.713 146.683 143.623C152.073 153.833 155.823 165.233 156.063 176.853C156.243 185.433 154.883 195.243 148.623 201.613C143.323 207.003 136.123 210.443 129.053 212.873C121.273 215.543 113.033 217.133 104.803 217.283C101.263 217.353 97.6828 217.163 94.2028 216.433C92.6428 216.113 91.1528 215.643 89.6628 215.123C87.6628 214.433 85.5128 214.593 83.4628 214.903C81.1628 215.253 78.9228 215.913 76.7028 216.583C74.6828 217.193 72.6128 217.953 70.4728 217.803C67.5228 217.593 64.9628 215.313 63.4428 213.093C61.0128 209.553 59.1028 205.633 57.2428 201.773C55.5228 198.203 53.7928 194.643 52.8428 190.773C50.7428 182.173 51.5828 173.013 52.9128 164.373C54.4428 154.493 56.8228 144.763 58.7128 134.953C60.4328 126.053 61.9728 116.863 61.2728 107.763C60.8528 102.333 59.6328 96.9729 58.9928 91.5729C58.3528 86.1729 57.9028 80.2629 57.8828 74.5829C57.8328 63.2029 59.5128 51.9129 63.2428 41.1429C66.9728 30.3729 71.8528 20.5429 79.6428 12.8229C86.9628 5.57288 96.8328 1.57288 107.153 3.47288C117.473 5.37288 125.973 12.2429 129.473 22.0929C132.973 31.9429 131.533 42.6529 124.843 50.3829C121.623 54.1029 117.373 56.9429 112.513 57.9629C107.653 58.9829 103.123 57.8429 99.2228 55.2529C95.5728 52.8229 92.7628 48.9329 92.3128 44.5029C92.1228 42.6029 89.1228 42.5829 89.3128 44.5029L89.3228 44.4929Z" fill="black"/>
<g style="mix-blend-mode:multiply">
<path d="M89.5726 42.9729C90.3226 50.3429 99.2626 55.8729 107.773 55.2729C116.283 54.6729 123.593 48.9629 126.683 42.0629C130.603 33.3229 128.173 22.7029 120.693 15.9329C113.213 9.16291 101.103 8.70291 90.8626 11.7229C79.9826 14.9429 74.8826 23.8729 69.8226 32.8229C58.5626 52.7429 60.8726 67.4129 65.2226 89.2729C69.2626 53.0629 113.953 64.7829 115.993 54.3129" fill="#E0D4CA"/>
</g>
<path d="M64.5923 202.743C70.4623 209.503 77.9823 215.573 86.8223 217.773C88.6923 218.243 89.4923 215.343 87.6223 214.883C79.2623 212.803 72.2623 207.013 66.7123 200.623C65.4423 199.163 63.3323 201.293 64.5923 202.743Z" fill="black"/>
<path d="M57.0284 89.7116L57.0287 89.7123C59.4576 96.9348 60.4596 107.214 60.5595 118.594C60.6593 129.962 59.859 142.383 58.7076 153.864C57.5563 165.344 56.0547 175.876 54.7541 183.464C54.1037 187.258 53.5045 190.311 53.0255 192.375C52.7854 193.41 52.5785 194.183 52.4135 194.674C52.4028 194.706 52.3924 194.736 52.3823 194.765C47.6131 190.618 42.9622 182.847 39.9374 170.87C36.8244 158.545 35.4443 141.807 37.4105 120.088C38.1401 112.033 41.9922 104.118 45.7789 98.0024C47.669 94.95 49.5356 92.3575 50.9747 90.4328C51.4494 89.798 51.8749 89.2393 52.2413 88.7582C52.4321 88.5077 52.6068 88.2782 52.7641 88.0701C52.992 87.7685 53.1839 87.5108 53.3305 87.3034C53.4693 87.107 53.5913 86.9234 53.6563 86.783L53.657 86.7815C53.9852 86.0665 54.2733 85.9222 54.4171 85.9027C54.5769 85.881 54.8423 85.9692 55.2116 86.349C55.9307 87.0884 56.6265 88.5108 57.0284 89.7116ZM52.2126 195.162C52.2126 195.162 52.2136 195.161 52.2158 195.158C52.2138 195.161 52.2127 195.162 52.2126 195.162Z" fill="#261C13" stroke="black"/>
<path d="M60.8828 187.593C60.8828 187.593 90.6428 223.853 125.203 213.593C159.753 203.333 157.023 185.193 154.283 166.383C153.203 158.993 150.173 150.983 142.313 137.643C134.443 124.303 124.183 114.383 124.183 114.383C124.183 114.383 179.953 197.863 110.153 206.413C79.4728 210.173 60.8828 187.593 60.8828 187.593Z" fill="#E0D4CA"/>
<path d="M98.4419 44.7918C102.642 43.157 104.628 38.1894 102.879 33.6963C101.13 29.2033 96.3077 26.8863 92.1081 28.5212C87.9084 30.156 85.9218 35.1236 87.6708 39.6166C89.4199 44.1097 94.2423 46.4267 98.4419 44.7918Z" fill="white" stroke="black" stroke-width="2" stroke-miterlimit="10"/>
<path d="M97.8 35.07L96.11 41.82L96.26 35C93.86 35.27 92 37.3 92 39.77C92 42.42 94.15 44.57 96.8 44.57C99.45 44.57 101.6 42.42 101.6 39.77C101.6 37.46 99.97 35.54 97.8 35.08V35.07ZM99.95 39.76C99.32 40.12 98.57 39.98 98.26 39.44C97.95 38.9 98.21 38.18 98.83 37.82C99.46 37.46 100.21 37.6 100.52 38.14C100.83 38.68 100.57 39.4 99.95 39.76Z" fill="black"/>
<path d="M125.687 55.682C129.32 54.2675 131.122 50.1836 129.712 46.5604C128.302 42.9372 124.213 41.1466 120.579 42.5611C116.946 43.9755 115.143 48.0594 116.554 51.6826C117.964 55.3059 122.053 57.0964 125.687 55.682Z" fill="white" stroke="black" stroke-width="2" stroke-miterlimit="10"/>
<path d="M122.42 46.07L120.84 52.06L120.98 46C118.74 46.24 117 48.04 117 50.23C117 52.58 119.01 54.49 121.48 54.49C123.95 54.49 125.96 52.58 125.96 50.23C125.96 48.18 124.44 46.47 122.41 46.06L122.42 46.07ZM124.42 50.24C123.84 50.56 123.13 50.43 122.84 49.96C122.55 49.48 122.79 48.84 123.37 48.52C123.95 48.2 124.66 48.33 124.95 48.8C125.24 49.27 125 49.92 124.42 50.24Z" fill="black"/>
<path d="M99.4427 51.5529C97.1127 69.5429 91.0227 95.3429 85.7227 112.693C96.6227 97.0429 103.363 71.5229 110.423 52.1829" fill="#2CADC5"/>
<path d="M97.942 51.5529C95.812 67.8529 92.072 84.0029 87.822 99.8629C86.712 104.023 85.532 108.173 84.272 112.293C83.752 114.003 86.082 114.793 87.012 113.453C91.702 106.673 95.132 99.1029 98.192 91.4729C101.512 83.1629 104.332 74.6629 107.172 66.1829C108.692 61.6429 110.232 57.0929 111.872 52.5929C112.532 50.7729 109.632 49.9929 108.982 51.7929C103.072 68.0129 98.572 84.8529 91.022 100.433C89.092 104.413 86.942 108.303 84.422 111.943L87.162 113.103C92.022 97.1829 95.932 80.9029 98.902 64.5329C99.682 60.2329 100.372 55.9129 100.942 51.5729C101.052 50.7629 100.172 50.0829 99.442 50.0729C98.542 50.0729 98.042 50.7729 97.942 51.5729V51.5529Z" fill="black"/>
<path d="M89.0417 23.9779C89.0417 23.9779 94.8842 26.9799 99.6267 21.8346" stroke="black" stroke-width="2" stroke-miterlimit="10" stroke-linecap="round"/>
<path d="M125.15 36C125.15 36 127.315 42.5525 135.512 42.4561" stroke="black" stroke-width="2" stroke-miterlimit="10" stroke-linecap="round"/>
</svg>
